<?xml version="1.0" standalone="no"?>
<!DOCTYPE svg PUBLIC "-//W3C//DTD SVG 20010904//EN"
 "http://www.w3.org/TR/2001/REC-SVG-20010904/DTD/svg10.dtd">
<svg version="1.0" xmlns="http://www.w3.org/2000/svg"
 width="1365.000000pt" height="1024.000000pt" viewBox="0 0 1365.000000 1024.000000"
 preserveAspectRatio="xMidYMid meet">
<metadata>
Created by potrace 1.16, written by Peter Selinger 2001-2019
</metadata>
<g transform="translate(0.000000,1024.000000) scale(0.100000,-0.100000)"
fill="#000000" stroke="none">
<path d="M6770 9653 c-41 -17 -3828 -2208 -3849 -2227 -54 -48 -51 89 -51
-2306 0 -2395 -3 -2257 51 -2307 13 -11 884 -518 1934 -1125 l1910 -1103 60 0
60 0 1910 1103 c1051 607 1922 1115 1938 1130 15 14 32 42 38 62 6 23 9 504 7
1441 l-3 1406 -27 35 c-56 74 108 68 -1889 68 -1777 0 -1793 0 -1833 -20 -23
-11 -50 -33 -61 -48 -19 -26 -20 -45 -23 -742 -2 -700 -2 -716 18 -748 11 -18
34 -41 52 -52 32 -20 53 -20 1024 -20 984 0 991 0 1009 -20 17 -18 17 -25 6
-58 -26 -76 -102 -223 -162 -313 -82 -122 -283 -325 -399 -401 -102 -67 -1547
-903 -1609 -930 -29 -13 -54 -18 -75 -14 -40 8 -1505 852 -1619 933 -102 73
-275 244 -352 347 -163 221 -272 485 -317 766 -10 68 -13 343 -13 1350 l0
1265 22 36 c13 19 37 43 55 52 18 9 137 35 263 57 562 99 1135 246 1718 441
131 43 249 79 263 79 14 0 125 -33 247 -74 621 -208 1215 -359 1812 -460 169
-29 206 -44 238 -95 l22 -36 5 -644 5 -643 752 722 c669 641 754 726 764 762
6 23 8 56 5 73 -13 65 -45 95 -206 188 -3661 2115 -3583 2070 -3635 2074 -27
1 -57 0 -65 -4z"/>
</g>
</svg>
