<?xml version="1.0" encoding="utf-8"?>
<!-- Generator: Adobe Illustrator 27.6.1, SVG Export Plug-In . SVG Version: 6.00 Build 0)  -->
<svg version="1.0" id="Layer_1" xmlns="http://www.w3.org/2000/svg" xmlns:xlink="http://www.w3.org/1999/xlink" x="0px" y="0px"
	 viewBox="0 0 1024 768" style="enable-background:new 0 0 1024 768;" xml:space="preserve">
<style type="text/css">
	.st0{fill:#1A1A1A;}
</style>
<g>
	<g>
		<path class="st0" d="M351.4,388.2h25.1v48.2c-13.1,9.8-31.1,15.1-48,15.1c-37.3,0-64.8-25.6-64.8-61.4s27.5-61.4,65.3-61.4
			c20.9,0,38.2,7.1,49.7,20.5l-17.7,16.3c-8.7-9.2-18.7-13.4-30.7-13.4c-23.1,0-38.9,15.4-38.9,38c0,22.2,15.8,38,38.5,38
			c7.5,0,14.4-1.4,21.4-5.1V388.2z"/>
		<path class="st0" d="M487,358.1v91.3h-25.1v-10.9c-7,8-17.1,12.2-28.3,12.2c-22.9,0-39-12.9-39-41.1v-51.6H421v47.7
			c0,15.3,6.8,22.1,18.5,22.1c12.2,0,21-7.8,21-24.6v-45.1H487z"/>
		<path class="st0" d="M587.3,397.3v52.1h-24.8v-11.4c-4.9,8.3-14.4,12.7-27.8,12.7c-21.4,0-34.1-11.9-34.1-27.7
			c0-16.1,11.4-27.3,39.2-27.3h21c0-11.4-6.8-18-21-18c-9.7,0-19.7,3.2-26.3,8.5l-9.5-18.5c10-7.1,24.8-11,39.4-11
			C571.2,356.8,587.3,369.7,587.3,397.3z M560.8,420.6v-9.3h-18.2c-12.4,0-16.3,4.6-16.3,10.7c0,6.6,5.6,11,14.9,11
			C550.1,433,557.8,428.9,560.8,420.6z"/>
		<path class="st0" d="M662.8,356.8v24.4c-2.2-0.2-3.9-0.3-5.9-0.3c-14.6,0-24.3,8-24.3,25.5v43.1h-26.5v-91.3h25.3v12
			C637.9,361.4,648.7,356.8,662.8,356.8z"/>
		<path class="st0" d="M765.7,323.5v125.9h-25.3v-10.5c-6.6,8-16.3,11.9-28.5,11.9c-25.8,0-45.7-18.3-45.7-47
			c0-28.7,19.9-47,45.7-47c11.2,0,20.7,3.6,27.3,11v-44.3H765.7z M739.7,403.8c0-15.8-10.2-25.3-23.3-25.3
			c-13.2,0-23.4,9.5-23.4,25.3c0,15.8,10.2,25.3,23.4,25.3C729.5,429.1,739.7,419.6,739.7,403.8z"/>
		<path class="st0" d="M781.8,330.6c0-8.3,6.6-14.8,16.5-14.8c9.8,0,16.5,6.1,16.5,14.3c0,8.8-6.6,15.3-16.5,15.3
			C788.4,345.4,781.8,338.9,781.8,330.6z M785,358.1h26.5v91.3H785V358.1z"/>
		<path class="st0" d="M911.8,397.3v52.1H887v-11.4c-4.9,8.3-14.4,12.7-27.8,12.7c-21.4,0-34.1-11.9-34.1-27.7
			c0-16.1,11.4-27.3,39.2-27.3h21c0-11.4-6.8-18-21-18c-9.7,0-19.7,3.2-26.3,8.5l-9.5-18.5c10-7.1,24.8-11,39.4-11
			C895.7,356.8,911.8,369.7,911.8,397.3z M885.3,420.6v-9.3h-18.2c-12.4,0-16.3,4.6-16.3,10.7c0,6.6,5.6,11,14.9,11
			C874.6,433,882.3,428.9,885.3,420.6z"/>
		<path class="st0" d="M1024,397.2v52.3h-26.5v-48.2c0-14.8-6.8-21.6-18.5-21.6c-12.7,0-21.9,7.8-21.9,24.6v45.1h-26.5v-91.3h25.3
			v10.7c7.1-7.8,17.8-12.1,30.2-12.1C1007.7,356.8,1024,369.3,1024,397.2z"/>
	</g>
	<path class="st0" d="M212.3,369.3v73.6c0,1.5-0.8,2.9-2.1,3.6l-102,58.8c-1.3,0.7-2.9,0.7-4.2,0l-102-58.8
		c-1.3-0.7-2.1-2.1-2.1-3.6V325.1c0-1.5,0.8-2.9,2.1-3.6l102-58.9c1.3-0.7,2.9-0.7,4.2,0l99.2,57.3c2.4,1.4,2.8,4.7,0.8,6.6
		l-39.6,38v-33.3c0-2.1-1.5-3.8-3.5-4.1c-19.5-3.1-38.7-8.1-57.6-14.8c-0.9-0.3-1.9-0.3-2.8,0C85.8,319,66.6,324,47.1,327.1
		c-2,0.3-3.5,2.1-3.5,4.1v63.1c0,16,8.5,30.7,22.3,38.7l38.1,22c1.3,0.7,2.9,0.7,4.2,0l40.2-23.2c8.4-4.9,14.7-12.5,17.9-21.4
		c0.3-0.8-0.3-1.7-1.2-1.7h-51.7c-2.3,0-4.2-1.9-4.2-4.2v-35.2c0-2.3,1.9-4.2,4.2-4.2h94.7C210.4,365.1,212.3,367,212.3,369.3z"/>
</g>
</svg>
